<?xml version="1.0" encoding="utf-8"?>
<svg data-name="Layer 1" width="793" height="551.73152" viewBox="0 0 793 551.73152" xmlns="http://www.w3.org/2000/svg">
  <defs/>
  <ellipse cx="394.209" cy="466.423" rx="387.24" ry="58.757" fill="#e6e6e6" style=""/>
  <path d="M 693.698 481.233 L 108.487 481.233 C 97.649 481.233 88.865 472.894 88.865 462.605 C 301.004 439.201 509.156 439.201 713.321 462.605 C 713.321 472.894 704.535 481.233 693.698 481.233 Z" fill="#2f2e41" style=""/>
  <g id="freepik--Floor--inject-2" transform="matrix(1.044241, 0, 0, 0.991304, 2.842044, 32.782616)" style="">
    <polygon points="50.72 375.19 131.79 374.95 212.86 374.86 375 374.69 537.14 374.86 618.21 374.95 699.28 375.19 618.21 375.44 537.14 375.52 375 375.69 212.86 375.52 131.79 375.43 50.72 375.19" style="fill:#263238"/>
  </g>
  <g id="freepik--background-complete--inject-2" transform="matrix(1.044241, 0, 0, 0.991304, 6.640844, 31.535923)" style="">
    <path d="M244.2,148.3H117.56V61.67H244.2Zm-125.64-1H243.2V62.67H118.56Z" style="fill: rgb(216, 216, 216);"/>
    <path d="M127.46,67.25a2.52,2.52,0,1,1-2.52-2.52A2.52,2.52,0,0,1,127.46,67.25Z" style="fill: rgb(216, 216, 216);"/>
    <path d="M137.75,67.25a2.52,2.52,0,1,1-2.52-2.52A2.52,2.52,0,0,1,137.75,67.25Z" style="fill: rgb(216, 216, 216);"/>
    <path d="M148.05,67.25a2.53,2.53,0,1,1-2.52-2.52A2.52,2.52,0,0,1,148.05,67.25Z" style="fill: rgb(216, 216, 216);"/>
    <rect x="118.06" y="71.68" width="125.64" height="1" style="fill: rgb(216, 216, 216);"/>
    <polygon points="658.51 375.21 657.51 375.21 657.51 249.39 684.24 212.91 684.24 144.73 685.24 144.73 685.24 213.23 658.51 249.72 658.51 375.21" style="fill: rgb(216, 216, 216);"/>
    <path d="M684.74,145.27a2.88,2.88,0,1,1,2.88-2.87A2.87,2.87,0,0,1,684.74,145.27Zm0-4.75a1.88,1.88,0,1,0,1.88,1.88A1.88,1.88,0,0,0,684.74,140.52Z" style="fill: rgb(216, 216, 216);"/>
    <polygon points="665.4 375.21 664.4 375.21 664.4 253.8 664.49 253.66 691.13 217.31 691.13 169.73 692.13 169.73 692.13 217.64 665.4 254.12 665.4 375.21" style="fill: rgb(216, 216, 216);"/>
    <path d="M691.63,170.27a2.88,2.88,0,1,1,2.87-2.87A2.88,2.88,0,0,1,691.63,170.27Zm0-4.75a1.88,1.88,0,1,0,1.87,1.88A1.88,1.88,0,0,0,691.63,165.52Z" style="fill: rgb(216, 216, 216);"/>
    <rect x="650.88" y="208.8" width="1" height="166.41" style="fill: rgb(216, 216, 216);"/>
    <path d="M651.38,209.3a2.88,2.88,0,1,1,2.87-2.87A2.88,2.88,0,0,1,651.38,209.3Zm0-4.75a1.88,1.88,0,1,0,1.87,1.88A1.88,1.88,0,0,0,651.38,204.55Z" style="fill: rgb(216, 216, 216);"/>
    <polygon points="645.49 375.21 644.49 375.21 644.49 290.76 626.35 256.53 626.35 195.05 627.35 195.05 627.35 256.29 645.49 290.52 645.49 375.21" style="fill: rgb(216, 216, 216);"/>
    <path d="M626.84,195.55a2.88,2.88,0,1,1,2.88-2.88A2.88,2.88,0,0,1,626.84,195.55Zm0-4.75a1.88,1.88,0,1,0,1.88,1.87A1.87,1.87,0,0,0,626.84,190.8Z" style="fill: rgb(216, 216, 216);"/>
    <polygon points="639.14 375.21 638.14 375.21 638.14 294.43 616.75 256.59 616.75 216.04 617.75 216.04 617.75 256.32 639.14 294.17 639.14 375.21" style="fill: rgb(216, 216, 216);"/>
    <path d="M617.25,216.54a2.88,2.88,0,1,1,2.87-2.87A2.88,2.88,0,0,1,617.25,216.54Zm0-4.75a1.88,1.88,0,1,0,1.87,1.88A1.88,1.88,0,0,0,617.25,211.79Z" style="fill: rgb(216, 216, 216);"/>
    <polygon points="96.1 375.21 95.1 375.21 95.1 309.71 68.37 273.23 68.37 234.73 69.37 234.73 69.37 272.9 96.1 309.39 96.1 375.21" style="fill: rgb(216, 216, 216);"/>
    <path d="M68.87,235.27a2.88,2.88,0,1,1,2.87-2.87A2.87,2.87,0,0,1,68.87,235.27Zm0-4.75a1.88,1.88,0,1,0,1.87,1.88A1.88,1.88,0,0,0,68.87,230.52Z" style="fill: rgb(216, 216, 216);"/>
    <polygon points="89.21 375.21 88.21 375.21 88.21 314.12 61.48 277.64 61.48 259.73 62.48 259.73 62.48 277.31 89.21 313.8 89.21 375.21" style="fill: rgb(216, 216, 216);"/>
    <path d="M62,260.27a2.88,2.88,0,1,1,2.88-2.87A2.88,2.88,0,0,1,62,260.27Zm0-4.75a1.88,1.88,0,1,0,1.88,1.88A1.88,1.88,0,0,0,62,255.52Z" style="fill: rgb(216, 216, 216);"/>
    <rect x="101.73" y="268.8" width="1" height="106.41" style="fill: rgb(216, 216, 216);"/>
    <path d="M102.23,269.3a2.88,2.88,0,1,1,2.88-2.87A2.88,2.88,0,0,1,102.23,269.3Zm0-4.75a1.88,1.88,0,1,0,1.88,1.88A1.88,1.88,0,0,0,102.23,264.55Z" style="fill: rgb(216, 216, 216);"/>
    <polygon points="109.12 375.21 108.12 375.21 108.12 320.52 108.17 320.4 126.26 286.29 126.26 225.05 127.26 225.05 127.26 286.53 127.21 286.64 109.12 320.76 109.12 375.21" style="fill: rgb(216, 216, 216);"/>
    <path d="M126.76,225.55a2.88,2.88,0,1,1,2.88-2.88A2.88,2.88,0,0,1,126.76,225.55Zm0-4.75a1.88,1.88,0,1,0,1.88,1.87A1.87,1.87,0,0,0,126.76,220.8Z" style="fill: rgb(216, 216, 216);"/>
    <polygon points="115.47 375.21 114.47 375.21 114.47 324.17 114.53 324.05 135.86 286.32 135.86 246.04 136.86 246.04 136.86 286.59 136.79 286.7 115.47 324.43 115.47 375.21" style="fill: rgb(216, 216, 216);"/>
    <path d="M136.36,246.54a2.88,2.88,0,1,1,2.87-2.87A2.88,2.88,0,0,1,136.36,246.54Zm0-4.75a1.88,1.88,0,1,0,1.87,1.88A1.88,1.88,0,0,0,136.36,241.79Z" style="fill: rgb(216, 216, 216);"/>
    <path d="M686,127.75l7-11.25-3.44-2.13a3.13,3.13,0,0,1-1.46-3q.08-1,.06-2a3.13,3.13,0,0,1,1.64-2.85l3.57-1.92L687,93l-3.57,1.92a3.15,3.15,0,0,1-3.29-.22c-.54-.37-1.1-.72-1.68-1a3.13,3.13,0,0,1-1.66-2.85l.13-4.06-13.23-.41-.13,4.07a3.14,3.14,0,0,1-1.84,2.74c-.3.14-.59.28-.87.44s-.57.31-.85.48a3.14,3.14,0,0,1-3.29,0l-3.47-2.15-7,11.25,3.45,2.15a3.12,3.12,0,0,1,1.46,3,18.52,18.52,0,0,0-.06,2,3.16,3.16,0,0,1-1.65,2.86L645.94,115l6.26,11.67,3.57-1.91a3.15,3.15,0,0,1,3.29.21,18.07,18.07,0,0,0,1.68,1,3.13,3.13,0,0,1,1.66,2.85l-.12,4.06,13.23.41.13-4.06a3.12,3.12,0,0,1,1.84-2.73l.87-.44.85-.49a3.16,3.16,0,0,1,3.3,0Zm-11.2-8.35a10.85,10.85,0,1,1,4.44-14.69A10.85,10.85,0,0,1,674.75,119.4Z" style="fill: rgb(216, 216, 216);"/>
    <path d="M77.18,227.76l8-4.64-1.42-2.46a2.19,2.19,0,0,1,.08-2.31q.38-.58.69-1.2a2.21,2.21,0,0,1,2-1.22h2.84v-9.28H86.53a2.21,2.21,0,0,1-2-1.22q-.31-.62-.69-1.2a2.19,2.19,0,0,1-.08-2.31l1.42-2.46-8-4.64-1.42,2.47a2.17,2.17,0,0,1-2,1.08H72.35a2.19,2.19,0,0,1-2-1.07l-1.43-2.48-8,4.64,1.42,2.47a2.19,2.19,0,0,1-.08,2.31,12.71,12.71,0,0,0-.69,1.19,2.21,2.21,0,0,1-2,1.22H56.7v9.28h2.84a2.21,2.21,0,0,1,2,1.22,12.71,12.71,0,0,0,.69,1.19,2.21,2.21,0,0,1,.08,2.32l-1.42,2.46,8,4.64,1.43-2.47a2.2,2.2,0,0,1,2-1.08c.22,0,.45,0,.68,0s.46,0,.69,0a2.21,2.21,0,0,1,2,1.08ZM73,218.89a7.6,7.6,0,1,1,7.61-7.6A7.59,7.59,0,0,1,73,218.89Z" style="fill: rgb(216, 216, 216);"/>
    <path d="M645.08,135.89l-4.63-8L638,129.28a2.21,2.21,0,0,1-2.32-.08,11.7,11.7,0,0,0-1.2-.69,2.21,2.21,0,0,1-1.22-2v-2.84H624v2.84a2.21,2.21,0,0,1-1.22,2,13,13,0,0,0-1.21.69,2.19,2.19,0,0,1-2.31.08l-2.46-1.42-4.63,8,2.47,1.42a2.23,2.23,0,0,1,1.08,2.05c0,.23,0,.46,0,.68s0,.46,0,.69a2.19,2.19,0,0,1-1.08,2l-2.47,1.43,4.63,8,2.47-1.42a2.19,2.19,0,0,1,2.31.08q.59.38,1.2.69a2.21,2.21,0,0,1,1.22,2v2.84h9.27v-2.84a2.21,2.21,0,0,1,1.22-2q.62-.32,1.2-.69a2.19,2.19,0,0,1,2.31-.08l2.47,1.42,4.63-8-2.47-1.42a2.2,2.2,0,0,1-1.07-2c0-.23,0-.46,0-.69s0-.45,0-.68a2.22,2.22,0,0,1,1.08-2.05ZM636.21,140a7.6,7.6,0,1,1-7.59-7.6A7.59,7.59,0,0,1,636.21,140Z" style="fill: rgb(216, 216, 216);"/>
  </g>
  <path d="M 713.321 463.702 L 88.865 462.605 L 161.237 347.005 L 161.584 346.457 L 161.584 91.685 C 161.582 78.679 172.689 68.136 186.389 68.137 L 612.335 68.137 C 626.035 68.136 637.14 78.679 637.139 91.685 L 637.139 348.211 L 713.321 463.702 Z" fill="#3f3d56" style=""/>
  <path d="M 185.823 84.573 C 181.362 84.578 177.748 88.009 177.743 92.244 L 177.743 324.542 C 177.748 328.776 181.362 332.207 185.823 332.212 L 616.363 332.212 C 620.822 332.207 624.437 328.776 624.442 324.542 L 624.442 92.244 C 624.437 88.009 620.822 84.578 616.363 84.573 L 185.823 84.573 Z" fill="#fff" style=""/>
  <path d="M 187.627 362.893 C 186.275 362.895 185.048 363.642 184.481 364.807 L 162.181 410.828 C 161.125 413.006 162.801 415.49 165.326 415.49 L 634.286 415.49 C 636.86 415.49 638.535 412.916 637.383 410.731 L 613.143 364.71 C 612.56 363.595 611.36 362.889 610.047 362.893 L 187.627 362.893 Z" fill="#2f2e41" style=""/>
  <circle cx="397.642" cy="76.398" r="4.974" fill="#fff" style="" transform="matrix(1.044241, 0, 0, 0.991304, -15.872742, 0.073209)"/>
  <path d="M 353.266 424.256 C 351.702 424.258 350.332 425.254 349.923 426.687 L 344.329 446.411 C 343.737 448.5 345.394 450.553 347.672 450.553 L 454.053 450.553 C 456.434 450.553 458.104 448.325 457.325 446.19 L 450.133 426.467 C 449.65 425.143 448.336 424.256 446.86 424.256 L 353.266 424.256 Z" fill="#2f2e41" style=""/>
  <polygon points="637.139 342.622 637.139 347.004 161.237 347.004 161.595 346.457 161.595 342.622 637.139 342.622" fill="#2f2e41" style=""/>
  <circle cx="612.635" cy="85.794" r="77.375" style="fill: rgb(79, 70, 229);" transform="matrix(1.044241, 0, 0, 0.991304, -15.872742, 0.073209)"/>
  <path d="M 657.338 118.541 L 590.391 118.541 C 587.842 118.539 585.777 116.578 585.775 114.158 L 585.775 75.807 C 585.777 73.387 587.842 71.426 590.391 71.424 L 657.338 71.424 C 659.888 71.426 661.953 73.387 661.956 75.807 L 661.956 114.158 C 661.953 116.578 659.888 118.539 657.338 118.541 Z M 590.391 75.807 L 590.391 114.158 L 657.342 114.158 L 657.338 75.807 L 590.391 75.807 Z" fill="#fff" style=""/>
  <path d="M 644.642 75.807 L 603.088 75.807 L 603.088 58.275 C 603.088 45.576 611.827 36.36 623.865 36.36 C 635.903 36.36 644.642 45.576 644.642 58.275 L 644.642 75.807 Z M 607.706 71.424 L 640.025 71.424 L 640.025 58.275 C 640.025 47.952 633.379 40.743 623.865 40.743 C 614.351 40.743 607.706 47.952 607.706 58.275 L 607.706 71.424 Z" fill="#fff" style=""/>
  <circle cx="612.635" cy="94.637" r="4.421" fill="#fff" style="" transform="matrix(1.044241, 0, 0, 0.991304, -15.872742, 0.073209)"/>
  <path d="M 567.461 238.428 L 234.724 238.428 C 231.323 238.424 228.567 235.806 228.564 232.578 L 228.564 154.224 C 228.567 150.995 231.323 148.378 234.724 148.374 L 567.461 148.374 C 570.862 148.378 573.619 150.995 573.623 154.224 L 573.623 232.578 C 573.619 235.806 570.862 238.424 567.461 238.428 Z M 234.724 150.715 C 232.684 150.717 231.029 152.287 231.027 154.224 L 231.027 232.578 C 231.029 234.516 232.684 236.085 234.724 236.088 L 567.461 236.088 C 569.503 236.085 571.156 234.516 571.159 232.578 L 571.159 154.224 C 571.156 152.287 569.503 150.717 567.461 150.715 L 234.724 150.715 Z" fill="#e6e6e6" style=""/>
  <circle cx="289.49" cy="207.114" r="24.036" fill="#e6e6e6" style="" transform="matrix(1.044241, 0, 0, 0.991304, -15.872742, -8.926791)"/>
  <path d="M 344.394 180.501 C 341.173 180.496 339.156 183.803 340.76 186.452 C 341.509 187.686 342.894 188.446 344.394 188.444 L 541.606 188.444 C 544.827 188.444 546.84 185.134 545.23 182.487 C 544.482 181.258 543.101 180.501 541.606 180.501 L 344.394 180.501 Z" fill="#e6e6e6" style=""/>
  <path d="M 344.394 205.329 C 341.173 205.329 339.161 208.637 340.771 211.285 C 341.518 212.515 342.899 213.271 344.394 213.271 L 429.255 213.271 C 432.475 213.271 434.488 209.962 432.878 207.314 C 432.13 206.086 430.749 205.329 429.255 205.329 L 344.394 205.329 Z" fill="#e6e6e6" style=""/>
  <g id="freepik--Padlock--inject-2" transform="matrix(1.044241, 0, 0, 0.991304, -268.181946, 107.232201)" style="">
    <path d="M460.37,245.36h0L442,234.76h0c-.41-.22-1-.07-1.72.48-.38.28-.76.56-1.14.82l-.43.27c-.25.16-.5.33-.76.48s-.36.2-.54.31l-.67.37-.62.31-.62.3-.69.29c-.19.08-.38.17-.58.24l-.75.28-.53.19-.81.25-.48.14-.87.22-.44.1c-.3.07-.61.13-.92.18l-.38.07-1,.14-.33,0c-.34,0-.69.07-1,.09l-.27,0-1.08,0h-.22c-.37,0-.74,0-1.11,0h-.17c-.38,0-.77,0-1.15-.08h-.11l-1.19-.16h-.06l-.55-.11-11.4-6.58h0c-.84-.47-1.61-.13-2.11,1.1-6.62,16.44-20.72,33.11-30.12,37.28a4,4,0,0,0-.54.28,3.15,3.15,0,0,0-.33.22l-.15.1-.41.35,0,0c-.14.13-.27.27-.4.41h0a4,4,0,0,0-1.05,2.68l1.36,16.7c0,10.77,4.58,22.13,13.93,27.56h0l18.38,10.59h0l.13.07h0a25.86,25.86,0,0,0,15.59,3.05,10.11,10.11,0,0,0,5.35-2.68c20.56-21.23,30.55-50,30.55-65.86l1.36-18.4C460.94,246.08,460.73,245.57,460.37,245.36Z" style="fill:#90CAF9"/>
    <path d="M427.64,243.93a1.18,1.18,0,0,0-1.17.06l-.2.15a2.43,2.43,0,0,0-.31.38s0,0,0,0a3.9,3.9,0,0,0-.26.54,82.6,82.6,0,0,1-6.19,12.18,97.84,97.84,0,0,1-6.83,9.83c-1.2,1.5-2.4,2.93-3.61,4.27a.1.1,0,0,1,0,.05l-1,1.11,0,0c-.35.35-.68.71-1,1.05-.17.19-.34.37-.52.54-3.86,3.88-7.64,6.78-10.87,8.21a5.23,5.23,0,0,0-1.49,1l-.37.37h0a.71.71,0,0,1-.07.09l.07-.09-18.36-10.58a.2.2,0,0,1,.06-.07.79.79,0,0,1,.12-.15l.11-.1a.94.94,0,0,1,.1-.1l.11-.1h0a3.48,3.48,0,0,1,.3-.26l.15-.1c.11-.07.22-.16.33-.22a3.08,3.08,0,0,1,.54-.28c9.4-4.17,23.51-20.84,30.12-37.28.36-.88.85-1.31,1.41-1.31a1.4,1.4,0,0,1,.7.22L420.8,240Z" style="fill:#fff;opacity:0.4"/>
    <path d="M460.37,245.36h0L442,234.76h0c-.4-.21-1-.06-1.71.48-.37.29-.76.57-1.15.83l-.42.27c-.25.16-.5.33-.76.48s-.36.2-.54.31l-.67.37c-.2.11-.41.2-.62.3l-.62.31-.7.29c-.18.09-.38.17-.57.25l-.75.27-.53.19-.82.25-.48.14-.86.22-.43.1-.93.18-.39.07c-.32.06-.64.1-1,.14l-.33,0-1,.1h-.27c-.36,0-.72,0-1.08,0h-.21c-.38,0-.75,0-1.12,0h-.16c-.39,0-.78-.05-1.16-.08l-.11,0c-.4,0-.8-.09-1.18-.15h-.06a3.26,3.26,0,0,1-.55-.12l6.84,3.94.12.07a2.67,2.67,0,0,1,.68.61h0a.86.86,0,0,1,.13.14c7,8.18,20.84,8.17,30.07,1.11.7-.53,1.28-.7,1.67-.52l.06,0h0a.9.9,0,0,1,.39.48A.91.91,0,0,0,460.37,245.36Z" style="opacity:0.1"/>
    <path d="M407.68,330.58l-18.13-10.44h0c-9.34-5.44-13.93-16.8-13.93-27.57l-1.36-16.7a4.22,4.22,0,0,1,1.68-3.3,5.26,5.26,0,0,0-.63.62l18.37,10.58a3.92,3.92,0,0,0-1,2.69l1.35,16.7C394,313.83,398.5,325.09,407.68,330.58Z" style="opacity:0.2"/>
    <path d="M460.91,246.91l-1.36,18.4c0,15.9-10,44.63-30.54,65.86a10,10,0,0,1-5.37,2.67,25.77,25.77,0,0,1-15.58-3h0l-.13-.07-.24-.15c-9.19-5.49-13.7-16.74-13.7-27.42l-1.35-16.7a3.94,3.94,0,0,1,1-2.68h0a4.25,4.25,0,0,1,.36-.37,5.17,5.17,0,0,1,1.49-1c3.24-1.44,7-4.34,10.88-8.21l.52-.54,1-1.06,0,0,1-1.11s0,0,0,0c1.22-1.35,2.42-2.78,3.62-4.28a98.35,98.35,0,0,0,6.83-9.83,82.43,82.43,0,0,0,6.18-12.17,5.67,5.67,0,0,1,.27-.55l0,0a2.33,2.33,0,0,1,.31-.37,1.3,1.3,0,0,1,.2-.15,1.12,1.12,0,0,1,1.16-.06l.13.06a2.52,2.52,0,0,1,.68.61h0l.13.15c7,8.17,20.84,8.16,30.07,1.11.69-.53,1.28-.7,1.67-.53l.05,0h0a.53.53,0,0,1,.23.19A1.92,1.92,0,0,1,460.91,246.91Z" style="fill:#90CAF9"/>
    <path d="M432.11,307.26l-10.94,6.31,1.69-19.79c-1.31-.69-2.14-2.4-2.14-4.84,0-4.36,2.65-9.42,5.92-11.31s5.92.11,5.92,4.47a15,15,0,0,1-2.14,7.32Z" style="fill:#455a64"/>
    <polygon points="432.11 307.26 422.2 301.53 421.17 313.57 432.11 307.26" style="fill:#37474f"/>
    <path d="M426.64,277.63a12.89,12.89,0,0,0-5.05,6.7l8.83,5.09h0a15,15,0,0,0,2.14-7.32C432.56,277.74,429.91,275.74,426.64,277.63Z" style="fill:#37474f"/>
    <path d="M440.4,198.69c-3-1.76-6.86-1.56-10.49.53l-28.75,16.61A21.89,21.89,0,0,0,391,233.48V268.7h0a2.52,2.52,0,0,0,1.49,2.07,8,8,0,0,0,7.18,0,2.52,2.52,0,0,0,1.49-2.07h0V233.48a11.85,11.85,0,0,1,5.11-8.85L435,208h0v35.25h0a2.52,2.52,0,0,0,1.5,2.07,7.94,7.94,0,0,0,7.17,0,2.52,2.52,0,0,0,1.49-2.07h0V208C445.18,203.85,443.44,200.44,440.4,198.69Z" style="fill:#37474f"/>
    <path d="M435,208v35.22a2.52,2.52,0,0,0,1.5,2.07,5.79,5.79,0,0,0,1.49.59V206.28L435,208Z" style="fill:#263238"/>
  </g>
  <g id="freepik--Password--inject-2" transform="matrix(1.044241, 0, 0, 0.991304, 11.632918, 75.110039)" style="">
    <rect x="227.42" y="186.44" width="295.16" height="44.74" style="fill:#fff"/>
    <path d="M523.08,231.67H226.92V185.94H523.08Zm-295.16-1H522.08V186.94H227.92Z" style="fill:#dbdbdb"/>
    <path d="M253.48,198.56a24.25,24.25,0,0,1,1.17,5.12,40.57,40.57,0,0,1,0,10.25,24.42,24.42,0,0,1-1.18,5.12,23.81,23.81,0,0,1-1.18-5.12,41.2,41.2,0,0,1,0-10.25A24.92,24.92,0,0,1,253.48,198.56Z" style="fill:#37474f"/>
    <path d="M263.72,208.8A23.54,23.54,0,0,1,258.6,210a40,40,0,0,1-5.12.32,38.15,38.15,0,0,1-5.12-.32,23.76,23.76,0,0,1-5.13-1.18,25,25,0,0,1,5.13-1.18,39.88,39.88,0,0,1,5.12-.32,41.91,41.91,0,0,1,5.12.33A24.11,24.11,0,0,1,263.72,208.8Z" style="fill:#37474f"/>
    <path d="M260.72,201.56a24.43,24.43,0,0,1-2.79,4.45,39,39,0,0,1-3.39,3.85,40.16,40.16,0,0,1-3.85,3.4,24.51,24.51,0,0,1-4.46,2.79,24.51,24.51,0,0,1,2.79-4.46,40.16,40.16,0,0,1,3.4-3.85,41.47,41.47,0,0,1,3.85-3.39A24.77,24.77,0,0,1,260.72,201.56Z" style="fill:#37474f"/>
    <path d="M260.72,216.05a24.77,24.77,0,0,1-4.45-2.79,40.16,40.16,0,0,1-3.85-3.4A38.87,38.87,0,0,1,249,206a24.51,24.51,0,0,1-2.79-4.46,24,24,0,0,1,4.46,2.79,40.07,40.07,0,0,1,7.24,7.25A24.43,24.43,0,0,1,260.72,216.05Z" style="fill:#37474f"/>
    <path d="M293.42,198.56a24.25,24.25,0,0,1,1.17,5.12,42,42,0,0,1,.33,5.12,40.15,40.15,0,0,1-.32,5.13,25.07,25.07,0,0,1-1.18,5.12,23.81,23.81,0,0,1-1.18-5.12,38.41,38.41,0,0,1-.32-5.13,40.11,40.11,0,0,1,.32-5.12A24.28,24.28,0,0,1,293.42,198.56Z" style="fill:#37474f"/>
    <path d="M303.66,208.8a23.68,23.68,0,0,1-5.12,1.18,40.11,40.11,0,0,1-5.12.32,38.41,38.41,0,0,1-5.13-.32,23.81,23.81,0,0,1-5.12-1.18,25.07,25.07,0,0,1,5.12-1.18,40.15,40.15,0,0,1,5.13-.32,42,42,0,0,1,5.12.33A24.25,24.25,0,0,1,303.66,208.8Z" style="fill:#37474f"/>
    <path d="M300.66,201.56a24.43,24.43,0,0,1-2.79,4.45,39,39,0,0,1-3.39,3.85,40.16,40.16,0,0,1-3.85,3.4,24.51,24.51,0,0,1-4.46,2.79,24.51,24.51,0,0,1,2.79-4.46,40.16,40.16,0,0,1,3.4-3.85,39,39,0,0,1,3.85-3.39A24.43,24.43,0,0,1,300.66,201.56Z" style="fill:#37474f"/>
    <path d="M300.66,216.05a24.43,24.43,0,0,1-4.45-2.79,37.87,37.87,0,0,1-3.85-3.4A38.87,38.87,0,0,1,289,206a24.51,24.51,0,0,1-2.79-4.46,24,24,0,0,1,4.46,2.79,40.07,40.07,0,0,1,7.24,7.25A24.43,24.43,0,0,1,300.66,216.05Z" style="fill:#37474f"/>
    <path d="M333.35,198.56a23.68,23.68,0,0,1,1.18,5.12,40.11,40.11,0,0,1,.32,5.12,38.41,38.41,0,0,1-.32,5.13,23.81,23.81,0,0,1-1.18,5.12,24.39,24.39,0,0,1-1.17-5.12,40.16,40.16,0,0,1-.33-5.13,42,42,0,0,1,.33-5.12A24.25,24.25,0,0,1,333.35,198.56Z" style="fill:#37474f"/>
    <path d="M343.6,208.8a23.81,23.81,0,0,1-5.12,1.18,40.15,40.15,0,0,1-5.13.32,38.36,38.36,0,0,1-5.12-.32,23.68,23.68,0,0,1-5.12-1.18,24.92,24.92,0,0,1,5.12-1.18,40.11,40.11,0,0,1,5.12-.32,42.07,42.07,0,0,1,5.13.33A24.39,24.39,0,0,1,343.6,208.8Z" style="fill:#37474f"/>
    <path d="M340.6,201.56a24.43,24.43,0,0,1-2.79,4.45,39,39,0,0,1-3.39,3.85,40.16,40.16,0,0,1-3.85,3.4,24.51,24.51,0,0,1-4.46,2.79,24,24,0,0,1,2.79-4.46,41.47,41.47,0,0,1,3.39-3.85,40.34,40.34,0,0,1,3.86-3.39A24.43,24.43,0,0,1,340.6,201.56Z" style="fill:#37474f"/>
    <path d="M340.6,216.05a24.43,24.43,0,0,1-4.45-2.79,39.1,39.1,0,0,1-3.86-3.4A40.1,40.1,0,0,1,328.9,206a24,24,0,0,1-2.79-4.46,24,24,0,0,1,4.46,2.79,40.07,40.07,0,0,1,7.24,7.25A24.43,24.43,0,0,1,340.6,216.05Z" style="fill:#37474f"/>
    <path d="M373.29,198.56a24.28,24.28,0,0,1,1.18,5.12,41.2,41.2,0,0,1,0,10.25,23.81,23.81,0,0,1-1.18,5.12,24.42,24.42,0,0,1-1.18-5.12,40.15,40.15,0,0,1-.32-5.13,42,42,0,0,1,.33-5.12A24.25,24.25,0,0,1,373.29,198.56Z" style="fill:#37474f"/>
    <path d="M383.54,208.8a23.81,23.81,0,0,1-5.12,1.18,40.15,40.15,0,0,1-5.13.32,38.36,38.36,0,0,1-5.12-.32,23.68,23.68,0,0,1-5.12-1.18,24.92,24.92,0,0,1,5.12-1.18,40.11,40.11,0,0,1,5.12-.32,42.07,42.07,0,0,1,5.13.33A24.39,24.39,0,0,1,383.54,208.8Z" style="fill:#37474f"/>
    <path d="M380.54,201.56a24.43,24.43,0,0,1-2.79,4.45,39.13,39.13,0,0,1-3.4,3.85,37.87,37.87,0,0,1-3.85,3.4,24.43,24.43,0,0,1-4.45,2.79,23.46,23.46,0,0,1,2.79-4.46,40.06,40.06,0,0,1,3.39-3.85,41.47,41.47,0,0,1,3.85-3.39A24.86,24.86,0,0,1,380.54,201.56Z" style="fill:#37474f"/>
    <path d="M380.54,216.05a24.86,24.86,0,0,1-4.46-2.79,40.16,40.16,0,0,1-3.85-3.4,38.77,38.77,0,0,1-3.39-3.84,23.46,23.46,0,0,1-2.79-4.46,23.89,23.89,0,0,1,4.45,2.79,37.78,37.78,0,0,1,3.85,3.39,40.44,40.44,0,0,1,3.4,3.86A24.43,24.43,0,0,1,380.54,216.05Z" style="fill:#37474f"/>
    <path d="M413.23,198.56a24.92,24.92,0,0,1,1.18,5.12,41.2,41.2,0,0,1,0,10.25,23.81,23.81,0,0,1-1.18,5.12,24.42,24.42,0,0,1-1.18-5.12,40.57,40.57,0,0,1,0-10.25A24.25,24.25,0,0,1,413.23,198.56Z" style="fill:#37474f"/>
    <path d="M423.48,208.8a23.76,23.76,0,0,1-5.13,1.18,39.88,39.88,0,0,1-5.12.32,38.26,38.26,0,0,1-5.12-.32A23.54,23.54,0,0,1,403,208.8a24.77,24.77,0,0,1,5.12-1.18,40,40,0,0,1,5.12-.32,41.78,41.78,0,0,1,5.12.33A24.34,24.34,0,0,1,423.48,208.8Z" style="fill:#37474f"/>
    <path d="M420.48,201.56a23.93,23.93,0,0,1-2.8,4.45,40.95,40.95,0,0,1-7.24,7.25,24.43,24.43,0,0,1-4.45,2.79,23.46,23.46,0,0,1,2.79-4.46,40.06,40.06,0,0,1,3.39-3.85,41.47,41.47,0,0,1,3.85-3.39A24.51,24.51,0,0,1,420.48,201.56Z" style="fill:#37474f"/>
    <path d="M420.48,216.05a24.51,24.51,0,0,1-4.46-2.79,40.16,40.16,0,0,1-3.85-3.4,38.77,38.77,0,0,1-3.39-3.84,23.46,23.46,0,0,1-2.79-4.46,23.89,23.89,0,0,1,4.45,2.79,37.78,37.78,0,0,1,3.85,3.39,39,39,0,0,1,3.39,3.86A23.93,23.93,0,0,1,420.48,216.05Z" style="fill:#37474f"/>
    <path d="M453.17,198.56a24.25,24.25,0,0,1,1.17,5.12,40.57,40.57,0,0,1,0,10.25,24.42,24.42,0,0,1-1.18,5.12,23.81,23.81,0,0,1-1.18-5.12,41.2,41.2,0,0,1,0-10.25A24.92,24.92,0,0,1,453.17,198.56Z" style="fill:#37474f"/>
    <path d="M463.41,208.8a23.54,23.54,0,0,1-5.12,1.18,40,40,0,0,1-5.12.32,38.15,38.15,0,0,1-5.12-.32,23.76,23.76,0,0,1-5.13-1.18,25,25,0,0,1,5.13-1.18,39.88,39.88,0,0,1,5.12-.32,41.91,41.91,0,0,1,5.12.33A24.11,24.11,0,0,1,463.41,208.8Z" style="fill:#37474f"/>
    <path d="M460.41,201.56a23.38,23.38,0,0,1-2.79,4.45,37.78,37.78,0,0,1-3.39,3.85,40.16,40.16,0,0,1-3.85,3.4,24.77,24.77,0,0,1-4.45,2.79,23.94,23.94,0,0,1,2.78-4.46,40.95,40.95,0,0,1,7.25-7.24A24.77,24.77,0,0,1,460.41,201.56Z" style="fill:#37474f"/>
    <path d="M460.41,216.05a24.77,24.77,0,0,1-4.45-2.79,41.86,41.86,0,0,1-7.25-7.24,23.94,23.94,0,0,1-2.78-4.46,24.23,24.23,0,0,1,4.45,2.79,40.06,40.06,0,0,1,3.85,3.39,39,39,0,0,1,3.39,3.86A23.38,23.38,0,0,1,460.41,216.05Z" style="fill:#37474f"/>
  </g>
  <g id="freepik--Plant--inject-2" transform="matrix(1.044241, 0, 0, 0.991304, 592.653381, 32.98473)" style="">
    <path d="M98.5,299.07c-6.39-13.13-17.57-19.87-30.17-16.14s-14.55,21.29-5.15,25.73S82,300.14,87,297.48,98.5,299.07,98.5,299.07Z" style="fill: rgb(238, 76, 52);"/>
    <path d="M104.68,334c0-1.58-.09-3.17-.15-4.75q-.16-4.74-.34-9.48C104,314,103.36,308.34,101,303a26,26,0,0,0-10.13-11.68A20.92,20.92,0,0,0,85.5,289a12.4,12.4,0,0,0-6.22-3.42,25.35,25.35,0,0,0-8.86-.22.09.09,0,0,0,0,.17,21.17,21.17,0,0,1,8.38.59,17.82,17.82,0,0,1,3.38,1.32,15.7,15.7,0,0,1,2,1.24,17.11,17.11,0,0,0-10.37.95,8.29,8.29,0,0,0-2.1-.18,12.57,12.57,0,0,0-2.73.39,20.6,20.6,0,0,0-5.18,2.27c-.09.05,0,.19.09.14a19.54,19.54,0,0,1,5.05-1.91,17.72,17.72,0,0,1,2.6-.38A14,14,0,0,1,73,290a16.74,16.74,0,0,0-8.14,8.12c0,.1.1.18.14.08a15.33,15.33,0,0,1,10.38-8.32c.28-.07.56-.11.85-.16A11,11,0,0,0,76,291c-.08.64-.19,1.27-.32,1.9a32.1,32.1,0,0,1-1,3.85,30.92,30.92,0,0,1-1.53,3.72,17.6,17.6,0,0,1-2.13,3.6c-.08.09.07.2.13.1.76-1.19,1.64-2.28,2.33-3.51A26,26,0,0,0,75.21,297a24.45,24.45,0,0,0,1.12-3.93c.14-.71.25-1.42.33-2.14a4.74,4.74,0,0,0,.08-1.3,17.23,17.23,0,0,1,4.48-.1c-.56,3.14-1.16,6.4-2.92,9.12-.06.09.1.18.15.08a36.92,36.92,0,0,0,2.16-4.48,16.63,16.63,0,0,0,1.08-4.66,20.5,20.5,0,0,1,7.4,2.48,24.45,24.45,0,0,1,9.85,10.77,40.76,40.76,0,0,1,3.65,15.44c.42,6.72.51,13.47,1.18,20.16,0,.44.73.59.82.09A24,24,0,0,0,104.68,334Z" style="fill:#263238"/>
    <path d="M89.92,290.28a7.46,7.46,0,0,0-1.46-1.34c-.52-.43-1.06-.85-1.62-1.23A11.89,11.89,0,0,0,83.21,286c-.1,0-.14.14,0,.16A9.45,9.45,0,0,1,86.75,288c.54.39,1,.81,1.55,1.25a8.7,8.7,0,0,0,1.47,1.24A.12.12,0,0,0,89.92,290.28Z" style="fill:#263238"/>
    <path d="M69.53,295a37.93,37.93,0,0,0-2.93,3.88,22.73,22.73,0,0,0-2.18,4.32c0,.05,0,.07.07,0a51.07,51.07,0,0,1,5.16-8.11C69.72,295.08,69.59,295,69.53,295Z" style="fill:#263238"/>
    <path d="M83.27,293.74a9.48,9.48,0,0,1-.72,2.38,15.72,15.72,0,0,1-1.22,2.1s0,.09.08.06a8.5,8.5,0,0,0,2-4.5C83.45,293.68,83.29,293.64,83.27,293.74Z" style="fill:#263238"/>
    <path d="M103.79,299.4s9-11.37,26.51-7.34c16.59,3.83,24.25,34.26,7.48,37.9s-13.81-24.52-19.92-29.3C113.37,297.16,106.92,297.91,103.79,299.4Z" style="fill: rgb(238, 76, 52);"/>
    <path d="M143.78,308.68a33,33,0,0,0-3.6-2.76,15.25,15.25,0,0,0-3.83-1.91,23,23,0,0,0-2.28-2.93,22.51,22.51,0,0,0-5.27-4.2l.52,0a25.63,25.63,0,0,1,2.77,0,15.43,15.43,0,0,1,5.39,1.34c.1,0,.17-.11.07-.15a24.71,24.71,0,0,0-5.38-1.62,15.57,15.57,0,0,0-2.73-.24c-.49,0-1,0-1.46.09l-.28,0a23.6,23.6,0,0,0-5-1.85l.49-.13a25,25,0,0,1,2.59-.43A20.73,20.73,0,0,1,131,294c.11,0,.14-.15,0-.16a33.27,33.27,0,0,0-5.28-.21,21.22,21.22,0,0,0-4.39.57,24.19,24.19,0,0,0-3.18-.37c-6.09-.25-12.73,2-16.48,7s-4.48,11.69-5.14,17.74a134.46,134.46,0,0,0-.67,25.37c0,.5.74.41.76-.06.23-7.18.48-14.35,1.17-21.5.31-3.32.67-6.64,1.22-9.92a29.36,29.36,0,0,1,2.4-8.16,14.86,14.86,0,0,1,5.9-6.34,20,20,0,0,1,8.34-2.57,22.49,22.49,0,0,1,7.84.74,5,5,0,0,0,0,1.54,9.5,9.5,0,0,0,.38,1.91,10.51,10.51,0,0,0,.73,1.69c.33.6.73,1.14,1.1,1.71,0,.09.2,0,.13-.1a7.87,7.87,0,0,1-1.35-3.44,13.11,13.11,0,0,1-.21-1.78c0-.45,0-.9,0-1.35a23.14,23.14,0,0,1,7.63,4c.42.34.83.7,1.23,1.07a8.16,8.16,0,0,0-1.48,1.81A17.5,17.5,0,0,0,130,306a23.58,23.58,0,0,0-1.62,6.07.09.09,0,0,0,.17,0,17.62,17.62,0,0,1,2-5.75,24.53,24.53,0,0,1,1.55-2.56c.3-.42.6-.84.92-1.24.17-.21.36-.43.52-.67a24.21,24.21,0,0,1,4.95,7h0a11.84,11.84,0,0,0-2.05,2.94,26.48,26.48,0,0,0-1.63,3.5,58,58,0,0,0-2.09,7.11.09.09,0,0,0,.17,0,30.29,30.29,0,0,1,2.47-7c.52-1.09,1.08-2.17,1.66-3.23a31.93,31.93,0,0,0,1.64-3.05,22.43,22.43,0,0,1,2,8.08c0,.11.17.1.17,0a28.23,28.23,0,0,0-3.92-12.41c1.06.45,2.13.89,3.16,1.44a18.1,18.1,0,0,1,3.63,2.55C143.75,308.88,143.86,308.75,143.78,308.68Z" style="fill:#263238"/>
    <path d="M131,309.32c-.53,1.73-1.19,3.4-1.66,5.14a19.85,19.85,0,0,0-.77,5.13,0,0,0,0,0,.08,0,50,50,0,0,1,2.5-10.23C131.18,309.26,131,309.21,131,309.32Z" style="fill:#263238"/>
    <path d="M142,305.05a9.74,9.74,0,0,0-2.32-1.66,16.92,16.92,0,0,0-2.67-.94c-.1,0-.14.14,0,.16a10.48,10.48,0,0,1,2.57,1.06,18.74,18.74,0,0,1,2.38,1.46C142,305.17,142.09,305.09,142,305.05Z" style="fill:#263238"/>
    <path d="M112.39,284.21s1.67-20.42,16.85-27c12.68-5.53,19.94,8.72,11,17.44C133,281.67,121.34,278.48,112.39,284.21Z" style="fill: rgb(238, 76, 52);"/>
    <path d="M137.41,261.12a64.06,64.06,0,0,0-6.75,3.2,49.72,49.72,0,0,0-5.25,3.48c.25-.51.47-1.06.73-1.56a26.13,26.13,0,0,1,1.29-2.31,21.39,21.39,0,0,1,3.34-4.23c.08-.08,0-.19-.12-.12a34.31,34.31,0,0,0-3.52,4.1,22.87,22.87,0,0,0-1.44,2.31,8.91,8.91,0,0,0-1,2.35c-.06.05-.12.08-.17.13a50.1,50.1,0,0,0-7.25,7.09c0-.2.08-.4.13-.58.29-1,.6-2,.92-3a25.18,25.18,0,0,1,2.75-6c.06-.09-.09-.17-.15-.08a47.4,47.4,0,0,0-3.18,5.81,23,23,0,0,0-1,3,13.67,13.67,0,0,0-.49,2.05c-.66.84-1.31,1.69-1.93,2.56-6.51,9.28-9.79,20.5-10.57,31.73a96.64,96.64,0,0,0-.17,10.07,62,62,0,0,0,.89,10.09c0,.21.37.15.37-.06-.08-2.95-.38-5.89-.44-8.84s0-5.92.28-8.87a82.35,82.35,0,0,1,3.32-17.38,62.18,62.18,0,0,1,7.72-16.33c.64-.13,1.27-.3,1.9-.47s1.52-.39,2.27-.6a21.87,21.87,0,0,0,4.23-1.55.08.08,0,1,0-.08-.14,13.89,13.89,0,0,1-4.3,1.48c-1.18.24-2.42.39-3.61.66,1.1-1.6,2.27-3.15,3.53-4.64a26.42,26.42,0,0,0,8.64-.64,35.91,35.91,0,0,0,4.42-1.38c1.52-.58,3-1.34,4.46-2,.12-.05,0-.22-.06-.16a25.3,25.3,0,0,1-8.76,2.87,55,55,0,0,1-8.19.68c1.08-1.24,2.19-2.45,3.38-3.58,4-3.8,8.72-7.29,14-9.11C137.56,261.25,137.51,261.08,137.41,261.12Z" style="fill:#263238"/>
    <path d="M125.05,261.19a22.92,22.92,0,0,0-1.86,2.72,15.23,15.23,0,0,0-1.34,3.17,0,0,0,0,0,.06,0c.51-1,.94-2,1.45-3a15.62,15.62,0,0,1,1.81-2.76C125.24,261.22,125.12,261.1,125.05,261.19Z" style="fill:#263238"/>
    <path d="M139.17,268a15.72,15.72,0,0,1-3.11,1.3,31.51,31.51,0,0,1-3.17.85,0,0,0,0,0,0,.09,15.87,15.87,0,0,0,3.28-.72,28.35,28.35,0,0,0,3.08-1.38C139.35,268.08,139.26,267.93,139.17,268Z" style="fill:#263238"/>
    <path d="M100.58,280.54c-.09.88-2.29-7.42-15.13-14.78-11.66-6.69-25.58-24.1-14.15-35.09C80.53,221.8,104.84,241.14,100.58,280.54Z" style="fill: rgb(238, 76, 52);"/>
    <path d="M109.42,328.11a227.79,227.79,0,0,0-2-25.82,116,116,0,0,0-5.42-23.1c-1-2.7-2-5.36-3.23-8a19.46,19.46,0,0,0,0-3.06c-.07-1.31-.19-2.61-.31-3.91s-.25-2.61-.4-3.91-.44-2.6-.49-3.9c0-.11-.19-.09-.16,0a28.52,28.52,0,0,1,.46,4.13c.1,1.26.17,2.52.21,3.79s0,2.52,0,3.79c0,.45,0,.94,0,1.42-1.21-2.55-2.5-5.06-3.9-7.51.87-5.32-.26-10.88-1.35-16.09,0-.1-.18-.05-.16.05a45.63,45.63,0,0,1,.85,8.25c0,2.19-.06,4.37-.06,6.56-.31-.53-.62-1.05-.94-1.57q-2.49-4.08-5.33-8a12.36,12.36,0,0,0-.12-3.79,30.6,30.6,0,0,0-.93-4.14,42.34,42.34,0,0,0-1.42-4c-.56-1.35-1.3-2.63-1.84-4,0-.11-.21,0-.15.07a19.27,19.27,0,0,1,1.61,4,37.19,37.19,0,0,1,1.05,4c.27,1.36.49,2.71.68,4.08.13.9.21,1.84.36,2.75a97.55,97.55,0,0,0-9-10.46c-.07-.08-.18,0-.11.12a118.69,118.69,0,0,1,13,17.75c.14.24.28.48.41.72-.7-.44-1.51-.8-2.18-1.17-1.24-.69-2.49-1.37-3.74-2l-3.64-2c-.62-.35-1.24-.71-1.87-1A15,15,0,0,1,77.08,251c-.09-.07-.2.08-.1.14,1.24.68,2.33,1.69,3.53,2.45s2.42,1.5,3.66,2.19c2.28,1.28,4.76,2.19,7,3.51,1.56,2.73,3,5.53,4.32,8.38-1.36-.88-2.76-1.7-4.17-2.5-.91-.51-1.82-1-2.74-1.49A13.34,13.34,0,0,1,86,262.1c-.08-.07-.19,0-.12.12a24.15,24.15,0,0,0,4.94,3.44c1.65,1,3.31,1.89,5,2.73q2.06,4.51,3.71,9.19c5.41,15.3,7.39,31.54,8.34,47.68.29,4.81.43,9.61.49,14.43s-.19,9.62-.18,14.42c0,.15.23.18.25,0,.58-4.26.68-8.6.87-12.9S109.52,332.48,109.42,328.11Z" style="fill:#263238"/>
    <path d="M86.09,258.84a63.79,63.79,0,0,1-6.82-3.53,73,73,0,0,1-6.48-4.11s-.07,0,0,.06A55.88,55.88,0,0,0,79,255.61,61.4,61.4,0,0,0,86,259C86.11,259,86.19,258.88,86.09,258.84Z" style="fill:#263238"/>
    <path d="M89.81,241.54c-.19-.75-.42-1.48-.67-2.21a.08.08,0,0,0,0-.08c-.16-.42-.33-.83-.5-1.24l-.06-.15c0-.08-.07-.15-.1-.23s-.05,0,0,0,.08.28.13.43a2,2,0,0,0,.06.23A60.25,60.25,0,0,1,90.57,247c0,.09.15.09.15,0A29,29,0,0,0,89.81,241.54Z" style="fill:#263238"/>
    <polygon points="122.99 331.21 122.07 342.07 119.27 375.19 89.22 375.19 86.42 342.07 85.5 331.21 122.99 331.21" style="fill:#37474f"/>
    <polygon points="122.99 331.21 122.07 342.07 86.42 342.07 85.5 331.21 122.99 331.21" style="fill:#263238"/>
    <rect x="82.56" y="326.86" width="43.38" height="10.42" style="fill:#37474f"/>
  </g>
</svg>